    <svg xmlns="http://www.w3.org/2000/svg" width="24" height="24" viewBox="0 0 24 24" fill="white">
      <path d="M17.05 12.46c-.03-3.02 2.47-4.46 2.58-4.53-1.41-2.06-3.61-2.34-4.39-2.37-1.87-.19-3.64 1.1-4.59 1.1-.94 0-2.4-1.07-3.95-1.04-2.03.03-3.9 1.18-4.95 3-2.11 3.66-.54 9.08 1.52 12.05 1.01 1.46 2.21 3.1 3.79 3.04 1.52-.06 2.1-.98 3.94-.98 1.84 0 2.36.98 3.97.95 1.64-.03 2.68-1.49 3.68-2.96 1.16-1.69 1.64-3.33 1.67-3.41-.04-.02-3.23-1.24-3.27-4.85z" />
      <path d="M14.02 3.59c.84-1.02 1.4-2.43 1.25-3.84-1.21.05-2.67.81-3.54 1.82-.78.9-1.46 2.34-1.28 3.72 1.35.1 2.73-.68 3.57-1.7z" />
    </svg>