<svg width="20" height="20" viewBox="0 0 20 20" fill="none" xmlns="http://www.w3.org/2000/svg">
  <!-- Outer shape -->
  <path
    d="M3.21 7.18A3.33 3.33 0 0 1 7.19 3.21A3.33 3.33 0 0 1 12.81 3.21A3.33 3.33 0 0 1 16.79 7.19A3.33 3.33 0 0 1 16.79 12.81A3.33 3.33 0 0 1 12.82 16.79A3.33 3.33 0 0 1 7.19 16.79A3.33 3.33 0 0 1 3.21 12.82A3.33 3.33 0 0 1 3.21 7.18Z"
    stroke="white"
    stroke-width="1.8"
    stroke-linecap="round"
    stroke-linejoin="round"
  />

  <!-- > symbol -->
  <path
    d="M6.8 8L8.2 10L6.8 12"
    stroke="white"
    stroke-width="1.8"
    stroke-linecap="round"
    stroke-linejoin="round"
  />

  <!-- - symbol shifted down -->
  <path
    d="M10.9 11H13.2"
    stroke="white"
    stroke-width="1.8"
    stroke-linecap="round"
  />
</svg>