<svg xmlns="http://www.w3.org/2000/svg" width="16" height="16" fill="white" viewBox="0 0 16 16">
  <!-- Outer circle -->
  <path d="M8 15A7 7 0 1 1 8 1a7 7 0 0 1 0 14m0 1A8 8 0 1 0 8 0a8 8 0 0 0 0 16"/>

  <!-- Diagonal connecting lines -->
  <line x1="10.12" y1="5.88" x2="12.95" y2="3.05" stroke="white" stroke-width="1"/>
  <line x1="10.12" y1="10.12" x2="12.95" y2="12.95" stroke="white" stroke-width="1"/>
  <line x1="5.88" y1="10.12" x2="3.05" y2="12.95" stroke="white" stroke-width="1"/>
  <line x1="5.88" y1="5.88" x2="3.05" y2="3.05" stroke="white" stroke-width="1"/>

  <!-- Inner circle -->
  <path d="M11 8a3 3 0 1 1-6 0 3 3 0 0 1 6 0"/>
</svg>